<mxfile host="app.diagrams.net" modified="2023-12-30T19:19:20.783Z" agent="Mozilla/5.0 (Macintosh; Intel Mac OS X 10_15_7) AppleWebKit/605.1.15 (KHTML, like Gecko) Version/17.2.1 Safari/605.1.15" version="22.1.16" etag="WwhtpkQGHP91YArz5dCt" type="github">
  <diagram name="Page-1" id="GJYkF7m3FggojSkFmTZb">
    <mxGraphModel>
      <root>
        <mxCell id="0" />
        <mxCell id="1" parent="0" />
        <mxCell id="2" value="GarageSocketManager" style="shape=umlLifeline;perimeter=lifelinePerimeter;whiteSpace=wrap;container=1;dropTarget=0;collapsible=0;recursiveResize=0;outlineConnect=0;portConstraint=eastwest;newEdgeStyle={&quot;edgeStyle&quot;:&quot;elbowEdgeStyle&quot;,&quot;elbow&quot;:&quot;vertical&quot;,&quot;curved&quot;:0,&quot;rounded&quot;:0};size=65;" vertex="1" parent="1">
          <mxGeometry width="180" height="1476" as="geometry" />
        </mxCell>
        <mxCell id="6" value="" style="points=[];perimeter=orthogonalPerimeter;outlineConnect=0;targetShapes=umlLifeline;portConstraint=eastwest;newEdgeStyle={&quot;edgeStyle&quot;:&quot;elbowEdgeStyle&quot;,&quot;elbow&quot;:&quot;vertical&quot;,&quot;curved&quot;:0,&quot;rounded&quot;:0}" vertex="1" parent="2">
          <mxGeometry x="90" y="103" width="10" height="171" as="geometry" />
        </mxCell>
        <mxCell id="7" value="" style="points=[];perimeter=orthogonalPerimeter;outlineConnect=0;targetShapes=umlLifeline;portConstraint=eastwest;newEdgeStyle={&quot;edgeStyle&quot;:&quot;elbowEdgeStyle&quot;,&quot;elbow&quot;:&quot;vertical&quot;,&quot;curved&quot;:0,&quot;rounded&quot;:0}" vertex="1" parent="2">
          <mxGeometry x="85" y="103" width="10" height="370" as="geometry" />
        </mxCell>
        <mxCell id="8" value="" style="points=[];perimeter=orthogonalPerimeter;outlineConnect=0;targetShapes=umlLifeline;portConstraint=eastwest;newEdgeStyle={&quot;edgeStyle&quot;:&quot;elbowEdgeStyle&quot;,&quot;elbow&quot;:&quot;vertical&quot;,&quot;curved&quot;:0,&quot;rounded&quot;:0}" vertex="1" parent="2">
          <mxGeometry x="90" y="521" width="10" height="48" as="geometry" />
        </mxCell>
        <mxCell id="9" value="" style="points=[];perimeter=orthogonalPerimeter;outlineConnect=0;targetShapes=umlLifeline;portConstraint=eastwest;newEdgeStyle={&quot;edgeStyle&quot;:&quot;elbowEdgeStyle&quot;,&quot;elbow&quot;:&quot;vertical&quot;,&quot;curved&quot;:0,&quot;rounded&quot;:0}" vertex="1" parent="2">
          <mxGeometry x="95" y="617" width="10" height="38" as="geometry" />
        </mxCell>
        <mxCell id="10" value="" style="points=[];perimeter=orthogonalPerimeter;outlineConnect=0;targetShapes=umlLifeline;portConstraint=eastwest;newEdgeStyle={&quot;edgeStyle&quot;:&quot;elbowEdgeStyle&quot;,&quot;elbow&quot;:&quot;vertical&quot;,&quot;curved&quot;:0,&quot;rounded&quot;:0}" vertex="1" parent="2">
          <mxGeometry x="100" y="713" width="10" height="28" as="geometry" />
        </mxCell>
        <mxCell id="11" value="" style="points=[];perimeter=orthogonalPerimeter;outlineConnect=0;targetShapes=umlLifeline;portConstraint=eastwest;newEdgeStyle={&quot;edgeStyle&quot;:&quot;elbowEdgeStyle&quot;,&quot;elbow&quot;:&quot;vertical&quot;,&quot;curved&quot;:0,&quot;rounded&quot;:0}" vertex="1" parent="2">
          <mxGeometry x="105" y="809" width="10" height="18" as="geometry" />
        </mxCell>
        <mxCell id="12" value="" style="points=[];perimeter=orthogonalPerimeter;outlineConnect=0;targetShapes=umlLifeline;portConstraint=eastwest;newEdgeStyle={&quot;edgeStyle&quot;:&quot;elbowEdgeStyle&quot;,&quot;elbow&quot;:&quot;vertical&quot;,&quot;curved&quot;:0,&quot;rounded&quot;:0}" vertex="1" parent="2">
          <mxGeometry x="110" y="905" width="10" height="131" as="geometry" />
        </mxCell>
        <mxCell id="13" value="" style="points=[];perimeter=orthogonalPerimeter;outlineConnect=0;targetShapes=umlLifeline;portConstraint=eastwest;newEdgeStyle={&quot;edgeStyle&quot;:&quot;elbowEdgeStyle&quot;,&quot;elbow&quot;:&quot;vertical&quot;,&quot;curved&quot;:0,&quot;rounded&quot;:0}" vertex="1" parent="2">
          <mxGeometry x="105" y="905" width="10" height="330" as="geometry" />
        </mxCell>
        <mxCell id="14" value="" style="points=[];perimeter=orthogonalPerimeter;outlineConnect=0;targetShapes=umlLifeline;portConstraint=eastwest;newEdgeStyle={&quot;edgeStyle&quot;:&quot;elbowEdgeStyle&quot;,&quot;elbow&quot;:&quot;vertical&quot;,&quot;curved&quot;:0,&quot;rounded&quot;:0}" vertex="1" parent="2">
          <mxGeometry x="110" y="1323" width="10" height="8" as="geometry" />
        </mxCell>
        <mxCell id="15" value="" style="points=[];perimeter=orthogonalPerimeter;outlineConnect=0;targetShapes=umlLifeline;portConstraint=eastwest;newEdgeStyle={&quot;edgeStyle&quot;:&quot;elbowEdgeStyle&quot;,&quot;elbow&quot;:&quot;vertical&quot;,&quot;curved&quot;:0,&quot;rounded&quot;:0}" vertex="1" parent="2">
          <mxGeometry x="105" y="1323" width="10" height="18" as="geometry" />
        </mxCell>
        <mxCell id="3" value="User" style="shape=umlLifeline;perimeter=lifelinePerimeter;whiteSpace=wrap;container=1;dropTarget=0;collapsible=0;recursiveResize=0;outlineConnect=0;portConstraint=eastwest;newEdgeStyle={&quot;edgeStyle&quot;:&quot;elbowEdgeStyle&quot;,&quot;elbow&quot;:&quot;vertical&quot;,&quot;curved&quot;:0,&quot;rounded&quot;:0};size=65;" vertex="1" parent="1">
          <mxGeometry x="377" width="150" height="1476" as="geometry" />
        </mxCell>
        <mxCell id="4" value="WatchConnectivity" style="shape=umlLifeline;perimeter=lifelinePerimeter;whiteSpace=wrap;container=1;dropTarget=0;collapsible=0;recursiveResize=0;outlineConnect=0;portConstraint=eastwest;newEdgeStyle={&quot;edgeStyle&quot;:&quot;elbowEdgeStyle&quot;,&quot;elbow&quot;:&quot;vertical&quot;,&quot;curved&quot;:0,&quot;rounded&quot;:0};size=65;" vertex="1" parent="1">
          <mxGeometry x="577" width="152" height="1476" as="geometry" />
        </mxCell>
        <mxCell id="5" value="HassFramework" style="shape=umlLifeline;perimeter=lifelinePerimeter;whiteSpace=wrap;container=1;dropTarget=0;collapsible=0;recursiveResize=0;outlineConnect=0;portConstraint=eastwest;newEdgeStyle={&quot;edgeStyle&quot;:&quot;elbowEdgeStyle&quot;,&quot;elbow&quot;:&quot;vertical&quot;,&quot;curved&quot;:0,&quot;rounded&quot;:0};size=65;" vertex="1" parent="1">
          <mxGeometry x="779" width="150" height="1476" as="geometry" />
        </mxCell>
        <mxCell id="16" value="alt" style="shape=umlFrame;dashed=1;pointerEvents=0;dropTarget=0;strokeColor=#B3B3B3;height=20;width=30" vertex="1" parent="1">
          <mxGeometry x="9" y="123" width="856" height="360" as="geometry" />
        </mxCell>
        <mxCell id="17" value="[Check Connection State]" style="text;strokeColor=none;fillColor=none;align=center;verticalAlign=middle;whiteSpace=wrap;" vertex="1" parent="16">
          <mxGeometry x="30" width="826" height="20" as="geometry" />
        </mxCell>
        <mxCell id="18" value="[Import Libraries]" style="shape=line;dashed=1;whiteSpace=wrap;verticalAlign=top;labelPosition=center;verticalLabelPosition=middle;align=center;strokeColor=#B3B3B3;" vertex="1" parent="16">
          <mxGeometry y="176" width="856" height="4" as="geometry" />
        </mxCell>
        <mxCell id="19" value="alt" style="shape=umlFrame;dashed=1;pointerEvents=0;dropTarget=0;strokeColor=#B3B3B3;height=20;width=30" vertex="1" parent="1">
          <mxGeometry x="29" y="925" width="836" height="360" as="geometry" />
        </mxCell>
        <mxCell id="20" value="[Check Connection State]" style="text;strokeColor=none;fillColor=none;align=center;verticalAlign=middle;whiteSpace=wrap;" vertex="1" parent="19">
          <mxGeometry x="30" width="806" height="20" as="geometry" />
        </mxCell>
        <mxCell id="21" value="[Import Libraries]" style="shape=line;dashed=1;whiteSpace=wrap;verticalAlign=top;labelPosition=center;verticalLabelPosition=middle;align=center;strokeColor=#B3B3B3;" vertex="1" parent="19">
          <mxGeometry y="176" width="836" height="4" as="geometry" />
        </mxCell>
        <mxCell id="22" value="Request GarageSocketManager.shared" style="verticalAlign=bottom;endArrow=block;edgeStyle=elbowEdgeStyle;elbow=vertical;curved=0;rounded=0;" edge="1" parent="1" source="3" target="6">
          <mxGeometry relative="1" as="geometry">
            <Array as="points">
              <mxPoint x="281" y="103" />
            </Array>
          </mxGeometry>
        </mxCell>
        <mxCell id="23" value="Check connection state" style="curved=1;" edge="1" parent="1" source="6" target="6">
          <mxGeometry relative="1" as="geometry">
            <Array as="points">
              <mxPoint x="150" y="196" />
              <mxPoint x="150" y="226" />
            </Array>
          </mxGeometry>
        </mxCell>
        <mxCell id="24" value="ConnectionState" style="verticalAlign=bottom;endArrow=block;edgeStyle=elbowEdgeStyle;elbow=vertical;curved=0;rounded=0;dashed=1;dashPattern=2 3;" edge="1" parent="1" source="6" target="3">
          <mxGeometry relative="1" as="geometry">
            <Array as="points">
              <mxPoint x="286" y="274" />
            </Array>
          </mxGeometry>
        </mxCell>
        <mxCell id="25" value="Import Foundation, Combine" style="verticalAlign=bottom;endArrow=block;edgeStyle=elbowEdgeStyle;elbow=vertical;curved=0;rounded=0;" edge="1" parent="1" source="7" target="5">
          <mxGeometry relative="1" as="geometry">
            <Array as="points">
              <mxPoint x="485" y="367" />
            </Array>
          </mxGeometry>
        </mxCell>
        <mxCell id="26" value="Import WatchConnectivity" style="verticalAlign=bottom;endArrow=block;edgeStyle=elbowEdgeStyle;elbow=vertical;curved=0;rounded=0;" edge="1" parent="1" source="7" target="4">
          <mxGeometry relative="1" as="geometry">
            <Array as="points">
              <mxPoint x="384" y="415" />
            </Array>
          </mxGeometry>
        </mxCell>
        <mxCell id="27" value="Success" style="verticalAlign=bottom;endArrow=block;edgeStyle=elbowEdgeStyle;elbow=vertical;curved=0;rounded=0;dashed=1;dashPattern=2 3;" edge="1" parent="1" source="7" target="3">
          <mxGeometry relative="1" as="geometry">
            <Array as="points">
              <mxPoint x="284" y="463" />
            </Array>
          </mxGeometry>
        </mxCell>
        <mxCell id="28" value="Request initial values" style="verticalAlign=bottom;endArrow=block;edgeStyle=elbowEdgeStyle;elbow=vertical;curved=0;rounded=0;" edge="1" parent="1" source="3" target="8">
          <mxGeometry relative="1" as="geometry">
            <Array as="points">
              <mxPoint x="281" y="521" />
            </Array>
          </mxGeometry>
        </mxCell>
        <mxCell id="29" value="leftDoorClosed, rightDoorClosed, alarmOff" style="verticalAlign=bottom;endArrow=block;edgeStyle=elbowEdgeStyle;elbow=vertical;curved=0;rounded=0;dashed=1;dashPattern=2 3;" edge="1" parent="1" source="8" target="3">
          <mxGeometry relative="1" as="geometry">
            <Array as="points">
              <mxPoint x="286" y="569" />
            </Array>
          </mxGeometry>
        </mxCell>
        <mxCell id="30" value="Set leftDoorClosed" style="verticalAlign=bottom;endArrow=block;edgeStyle=elbowEdgeStyle;elbow=vertical;curved=0;rounded=0;" edge="1" parent="1" source="3" target="9">
          <mxGeometry relative="1" as="geometry">
            <Array as="points">
              <mxPoint x="284" y="617" />
            </Array>
          </mxGeometry>
        </mxCell>
        <mxCell id="31" value="Updated leftDoorClosed" style="verticalAlign=bottom;endArrow=block;edgeStyle=elbowEdgeStyle;elbow=vertical;curved=0;rounded=0;dashed=1;dashPattern=2 3;" edge="1" parent="1" source="2" target="3">
          <mxGeometry relative="1" as="geometry">
            <Array as="points">
              <mxPoint x="289" y="665" />
            </Array>
          </mxGeometry>
        </mxCell>
        <mxCell id="32" value="Set rightDoorClosed" style="verticalAlign=bottom;endArrow=block;edgeStyle=elbowEdgeStyle;elbow=vertical;curved=0;rounded=0;" edge="1" parent="1" source="3" target="10">
          <mxGeometry relative="1" as="geometry">
            <Array as="points">
              <mxPoint x="286" y="713" />
            </Array>
          </mxGeometry>
        </mxCell>
        <mxCell id="33" value="Updated rightDoorClosed" style="verticalAlign=bottom;endArrow=block;edgeStyle=elbowEdgeStyle;elbow=vertical;curved=0;rounded=0;dashed=1;dashPattern=2 3;" edge="1" parent="1" source="2" target="3">
          <mxGeometry relative="1" as="geometry">
            <Array as="points">
              <mxPoint x="291" y="761" />
            </Array>
          </mxGeometry>
        </mxCell>
        <mxCell id="34" value="Set alarmOff" style="verticalAlign=bottom;endArrow=block;edgeStyle=elbowEdgeStyle;elbow=vertical;curved=0;rounded=0;" edge="1" parent="1" source="3" target="11">
          <mxGeometry relative="1" as="geometry">
            <Array as="points">
              <mxPoint x="289" y="809" />
            </Array>
          </mxGeometry>
        </mxCell>
        <mxCell id="35" value="Updated alarmOff" style="verticalAlign=bottom;endArrow=block;edgeStyle=elbowEdgeStyle;elbow=vertical;curved=0;rounded=0;dashed=1;dashPattern=2 3;" edge="1" parent="1" target="3">
          <mxGeometry relative="1" as="geometry">
            <Array as="points">
              <mxPoint x="294" y="857" />
            </Array>
          </mxGeometry>
        </mxCell>
        <mxCell id="36" value="Connect" style="verticalAlign=bottom;endArrow=block;edgeStyle=elbowEdgeStyle;elbow=vertical;curved=0;rounded=0;" edge="1" parent="1" source="3" target="13">
          <mxGeometry relative="1" as="geometry">
            <Array as="points">
              <mxPoint x="291" y="905" />
            </Array>
          </mxGeometry>
        </mxCell>
        <mxCell id="37" value="Check connection state" style="curved=1;" edge="1" parent="1" source="13" target="13">
          <mxGeometry relative="1" as="geometry">
            <Array as="points">
              <mxPoint x="170" y="998" />
              <mxPoint x="170" y="1028" />
            </Array>
          </mxGeometry>
        </mxCell>
        <mxCell id="38" value="Connection State" style="verticalAlign=bottom;endArrow=block;edgeStyle=elbowEdgeStyle;elbow=vertical;curved=0;rounded=0;dashed=1;dashPattern=2 3;" edge="1" parent="1" source="13" target="3">
          <mxGeometry relative="1" as="geometry">
            <Array as="points">
              <mxPoint x="296" y="1076" />
            </Array>
          </mxGeometry>
        </mxCell>
        <mxCell id="39" value="Import Foundation, Combine" style="verticalAlign=bottom;endArrow=block;edgeStyle=elbowEdgeStyle;elbow=vertical;curved=0;rounded=0;" edge="1" parent="1" source="13" target="5">
          <mxGeometry relative="1" as="geometry">
            <Array as="points">
              <mxPoint x="495" y="1169" />
            </Array>
          </mxGeometry>
        </mxCell>
        <mxCell id="40" value="Import WatchConnectivity" style="verticalAlign=bottom;endArrow=block;edgeStyle=elbowEdgeStyle;elbow=vertical;curved=0;rounded=0;" edge="1" parent="1" source="13" target="4">
          <mxGeometry relative="1" as="geometry">
            <Array as="points">
              <mxPoint x="394" y="1217" />
            </Array>
          </mxGeometry>
        </mxCell>
        <mxCell id="41" value="Success" style="verticalAlign=bottom;endArrow=block;edgeStyle=elbowEdgeStyle;elbow=vertical;curved=0;rounded=0;dashed=1;dashPattern=2 3;" edge="1" parent="1" target="3">
          <mxGeometry relative="1" as="geometry">
            <Array as="points">
              <mxPoint x="294" y="1265" />
            </Array>
          </mxGeometry>
        </mxCell>
        <mxCell id="42" value="Set error" style="verticalAlign=bottom;endArrow=block;edgeStyle=elbowEdgeStyle;elbow=vertical;curved=0;rounded=0;" edge="1" parent="1" source="3" target="15">
          <mxGeometry relative="1" as="geometry">
            <Array as="points">
              <mxPoint x="291" y="1323" />
            </Array>
          </mxGeometry>
        </mxCell>
        <mxCell id="43" value="Updated error" style="verticalAlign=bottom;endArrow=block;edgeStyle=elbowEdgeStyle;elbow=vertical;curved=0;rounded=0;dashed=1;dashPattern=2 3;" edge="1" parent="1" target="3">
          <mxGeometry relative="1" as="geometry">
            <Array as="points">
              <mxPoint x="296" y="1371" />
            </Array>
          </mxGeometry>
        </mxCell>
      </root>
    </mxGraphModel>
  </diagram>
</mxfile>
